<?xml version="1.0" standalone="no"?>
<!DOCTYPE svg PUBLIC "-//W3C//DTD SVG 20010904//EN"
 "http://www.w3.org/TR/2001/REC-SVG-20010904/DTD/svg10.dtd">
<svg version="1.0" xmlns="http://www.w3.org/2000/svg"
 width="512.000000pt" height="512.000000pt" viewBox="0 0 512.000000 512.000000"
 preserveAspectRatio="xMidYMid meet">

<g transform="translate(0.000000,512.000000) scale(0.100000,-0.100000)"
fill="#000000" stroke="none">
<path d="M2342 5110 c-875 -85 -1630 -598 -2022 -1375 -185 -365 -270 -724
-270 -1137 0 -528 168 -1044 478 -1467 34 -47 62 -87 62 -91 0 -3 -83 -199
-185 -436 -139 -324 -185 -439 -185 -470 0 -56 34 -105 86 -123 39 -14 73 -9
727 106 l687 121 92 -30 c246 -78 466 -110 748 -111 411 -1 760 81 1123 264
771 388 1293 1147 1377 2002 17 175 8 494 -19 653 -70 414 -225 774 -479 1114
-98 131 -316 354 -442 451 -360 279 -747 445 -1200 514 -126 19 -448 27 -578
15z m488 -281 c218 -25 487 -101 684 -193 445 -208 827 -579 1046 -1016 229
-457 295 -953 194 -1458 -166 -835 -814 -1514 -1648 -1727 -399 -102 -864 -85
-1241 45 -49 18 -108 31 -131 31 -22 0 -285 -43 -585 -96 -299 -52 -550 -95
-556 -95 -6 0 59 163 144 362 181 422 177 398 88 511 -339 432 -497 882 -498
1417 -1 273 31 464 118 720 114 331 279 594 535 851 192 193 344 304 578 422
392 199 831 277 1272 226z"/>
<path d="M1672 3103 c-35 -7 -89 -66 -96 -107 -11 -59 22 -122 79 -147 43 -19
63 -20 443 -17 l399 3 35 27 c62 47 74 133 26 193 -42 54 -54 55 -475 54 -213
-1 -398 -4 -411 -6z"/>
<path d="M1645 2402 c-39 -24 -54 -43 -65 -83 -13 -45 3 -98 40 -134 l31 -30
909 0 909 0 30 29 c63 60 63 142 1 201 l-31 30 -897 3 c-857 2 -898 1 -927
-16z"/>
</g>
</svg>
